<?xml version="1.0" standalone="no"?>
<!DOCTYPE svg PUBLIC "-//W3C//DTD SVG 20010904//EN"
 "http://www.w3.org/TR/2001/REC-SVG-20010904/DTD/svg10.dtd">
<svg version="1.0" xmlns="http://www.w3.org/2000/svg"
 width="222.000000pt" height="195.000000pt" viewBox="0 0 222.000000 195.000000"
 preserveAspectRatio="xMidYMid meet">

<g transform="translate(0.000000,195.000000) scale(0.100000,-0.100000)"
fill="#000000" stroke="none">
<path d="M922 1629 c-48 -24 -84 -72 -103 -136 l-12 -43 -127 0 c-70 0 -142
-5 -161 -11 -53 -18 -99 -58 -120 -103 -17 -38 -19 -73 -19 -486 0 -413 2
-448 19 -486 22 -48 70 -87 126 -104 29 -8 216 -10 670 -8 l630 3 47 27 c34
21 53 41 72 80 l26 52 0 436 0 436 -26 52 c-19 39 -38 59 -72 80 -44 25 -55
27 -189 30 l-142 4 -17 50 c-21 64 -75 125 -122 138 -21 5 -127 10 -237 10
-184 0 -203 -2 -243 -21z m481 -214 c40 -116 38 -115 233 -115 157 0 163 -1
178 -22 14 -19 16 -77 16 -428 0 -351 -2 -409 -16 -428 l-15 -22 -624 0 c-554
0 -625 2 -639 16 -14 13 -16 67 -16 434 0 367 2 421 16 434 13 13 43 16 177
16 128 0 167 3 184 15 12 9 31 43 44 82 37 114 12 104 237 101 l197 -3 28 -80z"/>
<path d="M1097 1190 c-101 -26 -197 -105 -240 -198 -31 -67 -31 -217 0 -284
32 -71 103 -141 176 -174 86 -39 196 -40 278 -2 79 36 133 89 171 166 29 59
33 76 33 152 0 99 -26 168 -90 239 -74 81 -222 127 -328 101z m158 -159 c68
-30 125 -113 125 -181 0 -37 -24 -94 -53 -127 -90 -102 -244 -95 -322 16 -26
37 -30 51 -30 111 0 60 4 74 30 111 57 81 161 111 250 70z"/>
</g>
</svg>
