<?xml version="1.0" standalone="no"?>
<!DOCTYPE svg PUBLIC "-//W3C//DTD SVG 20010904//EN"
 "http://www.w3.org/TR/2001/REC-SVG-20010904/DTD/svg10.dtd">
<svg version="1.0" xmlns="http://www.w3.org/2000/svg"
 width="199.000000pt" height="172.000000pt" viewBox="0 0 199.000000 172.000000"
 preserveAspectRatio="xMidYMid meet">

<g transform="translate(0.000000,172.000000) scale(0.100000,-0.100000)"
fill="#000000" stroke="none">
<path d="M683 1600 c-52 -12 -118 -56 -147 -98 -27 -39 -67 -139 -120 -298
-22 -68 -33 -86 -71 -117 -24 -21 -57 -59 -72 -85 l-28 -47 -3 -351 -3 -352
27 -21 c35 -27 59 -27 89 4 23 22 25 31 25 125 l0 100 655 0 655 0 0 -104 c0
-101 1 -105 26 -125 35 -28 59 -26 90 4 l25 25 -3 343 c-3 337 -3 343 -27 387
-13 25 -47 68 -75 95 -50 48 -55 57 -105 205 -60 174 -75 203 -131 253 -68 62
-103 67 -459 66 -174 -1 -330 -4 -348 -9z m697 -155 c16 -9 36 -28 44 -43 21
-41 88 -233 83 -238 -2 -2 -218 -3 -479 -2 l-475 3 46 125 c67 182 37 170 433
170 266 0 324 -3 348 -15z m230 -457 c69 -47 75 -64 78 -229 l4 -149 -656 0
-656 0 0 143 c0 128 2 146 23 181 45 79 23 76 633 76 l541 0 33 -22z"/>
<path d="M544 900 c-53 -21 -72 -105 -34 -153 40 -51 126 -43 155 14 45 86
-33 175 -121 139z"/>
<path d="M1444 900 c-53 -21 -72 -105 -34 -153 40 -51 126 -43 155 14 45 86
-33 175 -121 139z"/>
</g>
</svg>
