<?xml version="1.0" standalone="no"?>
<!DOCTYPE svg PUBLIC "-//W3C//DTD SVG 20010904//EN"
 "http://www.w3.org/TR/2001/REC-SVG-20010904/DTD/svg10.dtd">
<svg version="1.0" xmlns="http://www.w3.org/2000/svg"
 width="236.000000pt" height="203.000000pt" viewBox="0 0 236.000000 203.000000"
 preserveAspectRatio="xMidYMid meet">

<g transform="translate(0.000000,203.000000) scale(0.100000,-0.100000)"
fill="#000000" stroke="none">
<path d="M646 1693 c-49 -77 -264 -490 -281 -538 -20 -59 -22 -152 -5 -215 20
-75 49 -122 112 -182 l61 -58 -53 -145 c-29 -80 -57 -148 -62 -151 -5 -3 -51
9 -102 27 -107 37 -137 35 -156 -11 -17 -41 -1 -75 42 -95 18 -8 138 -53 266
-99 187 -69 237 -84 257 -76 43 16 61 84 29 111 -9 8 -58 30 -108 50 -60 24
-90 41 -88 50 2 8 26 78 54 156 l50 143 69 0 c129 0 251 70 313 180 18 31 44
107 61 175 16 66 35 119 40 117 6 -2 22 -55 37 -119 33 -135 65 -199 130 -258
72 -65 128 -88 228 -93 l85 -4 53 -147 c28 -81 52 -151 52 -157 0 -5 -30 -20
-67 -33 -108 -37 -131 -51 -141 -79 -12 -34 0 -66 31 -87 29 -18 8 -24 335 96
119 44 222 85 229 92 24 24 25 62 3 90 -27 35 -49 34 -150 -3 -45 -16 -87 -30
-94 -30 -7 0 -37 65 -69 153 l-56 152 27 20 c127 92 189 264 149 411 -15 56
-280 561 -305 582 -27 21 -59 14 -271 -62 l-207 -74 -207 74 c-114 41 -221 74
-237 74 -23 0 -35 -8 -54 -37z m268 -178 c82 -30 151 -56 152 -58 4 -3 -46
-219 -52 -226 -4 -5 -366 128 -377 138 -12 12 95 201 113 201 8 0 82 -25 164
-55z m693 -45 c28 -52 49 -98 45 -101 -11 -10 -373 -141 -377 -137 -6 6 -56
221 -52 225 12 11 295 112 312 110 14 -1 35 -31 72 -97z m-836 -304 l204 -75
-3 -33 c-12 -151 -115 -258 -248 -258 -68 0 -113 19 -164 68 -57 55 -87 136
-76 206 7 42 63 166 76 166 4 0 99 -33 211 -74z m997 3 c31 -58 34 -70 30
-135 -4 -90 -40 -154 -112 -198 -55 -35 -141 -46 -201 -26 -47 15 -111 72
-134 119 -21 41 -45 135 -39 152 4 13 396 160 413 155 6 -1 25 -31 43 -67z"/>
</g>
</svg>
