<?xml version="1.0" standalone="no"?>
<!DOCTYPE svg PUBLIC "-//W3C//DTD SVG 20010904//EN"
 "http://www.w3.org/TR/2001/REC-SVG-20010904/DTD/svg10.dtd">
<svg version="1.0" xmlns="http://www.w3.org/2000/svg"
 width="228.000000pt" height="174.000000pt" viewBox="0 0 228.000000 174.000000"
 preserveAspectRatio="xMidYMid meet">

<g transform="translate(0.000000,174.000000) scale(0.100000,-0.100000)"
fill="#000000" stroke="none">
<path d="M1150 1662 c-37 -12 -50 -35 -50 -89 l0 -53 -49 0 c-97 0 -146 -41
-121 -101 14 -33 54 -49 121 -49 l49 0 0 -42 0 -43 -176 -114 c-187 -122 -226
-158 -243 -227 -7 -27 -11 -171 -11 -383 l0 -341 -160 0 c-211 0 -200 -10
-200 183 0 168 -12 148 148 251 l102 66 0 80 c0 44 -2 80 -5 80 -11 0 -283
-184 -313 -212 -63 -58 -67 -75 -67 -263 0 -156 2 -173 22 -211 27 -50 70 -88
120 -106 56 -19 1640 -19 1696 0 50 18 93 56 120 106 20 38 22 55 22 211 0
229 3 225 -215 369 -88 58 -163 106 -165 106 -3 0 -5 -36 -5 -80 l0 -80 103
-66 c159 -103 147 -83 147 -251 0 -193 11 -183 -200 -183 l-160 0 0 341 c0
212 -4 356 -11 383 -17 69 -56 105 -243 227 l-176 114 0 43 0 42 49 0 c67 0
107 16 121 49 25 60 -24 101 -121 101 l-49 0 0 53 c0 39 -5 58 -17 69 -23 19
-44 26 -63 20z m190 -615 c85 -54 161 -106 168 -115 9 -12 12 -101 12 -364 l0
-348 -104 0 -105 0 -3 174 c-3 190 -7 202 -71 250 -56 42 -140 21 -191 -48
-19 -25 -21 -44 -24 -202 l-3 -174 -105 0 -104 0 0 348 c0 263 3 352 13 364
20 27 340 227 351 221 6 -4 81 -51 166 -106z"/>
</g>
</svg>
