<?xml version="1.0" standalone="no"?>
<!DOCTYPE svg PUBLIC "-//W3C//DTD SVG 20010904//EN"
 "http://www.w3.org/TR/2001/REC-SVG-20010904/DTD/svg10.dtd">
<svg version="1.0" xmlns="http://www.w3.org/2000/svg"
 width="261.000000pt" height="246.000000pt" viewBox="0 0 261.000000 246.000000"
 preserveAspectRatio="xMidYMid meet">

<g transform="translate(0.000000,246.000000) scale(0.100000,-0.100000)"
fill="#000000" stroke="none">
<path d="M506 1989 c-52 -41 -19 -129 50 -129 l24 0 0 -650 0 -650 -24 0 c-69
0 -102 -88 -50 -129 26 -21 33 -21 771 -21 l744 0 24 25 c14 13 25 36 25 50 0
33 -42 75 -75 75 l-25 0 0 650 0 650 25 0 c33 0 75 42 75 75 0 14 -11 37 -25
50 l-24 25 -744 0 c-738 0 -745 0 -771 -21z m1324 -779 l0 -650 -205 0 -205 0
0 125 0 125 59 0 c41 0 65 5 75 16 20 20 20 22 -5 88 -25 68 -92 139 -157 169
-72 32 -171 30 -245 -6 -67 -34 -130 -101 -151 -164 -30 -86 -17 -103 78 -103
l56 0 0 -125 0 -125 -205 0 -205 0 0 650 0 650 555 0 555 0 0 -650z"/>
<path d="M898 1699 c-15 -8 -18 -24 -18 -89 0 -94 6 -100 99 -100 80 0 91 12
91 100 0 89 -11 100 -93 100 -34 0 -70 -5 -79 -11z"/>
<path d="M1198 1699 c-15 -8 -18 -24 -18 -89 0 -94 6 -100 99 -100 80 0 91 12
91 100 0 89 -11 100 -93 100 -34 0 -70 -5 -79 -11z"/>
<path d="M1498 1699 c-15 -8 -18 -24 -18 -89 0 -94 6 -100 99 -100 80 0 91 12
91 100 0 89 -11 100 -93 100 -34 0 -70 -5 -79 -11z"/>
<path d="M898 1399 c-15 -8 -18 -24 -18 -89 0 -94 6 -100 99 -100 80 0 91 12
91 100 0 89 -11 100 -93 100 -34 0 -70 -5 -79 -11z"/>
<path d="M1198 1399 c-15 -8 -18 -24 -18 -89 0 -94 6 -100 99 -100 80 0 91 12
91 100 0 89 -11 100 -93 100 -34 0 -70 -5 -79 -11z"/>
<path d="M1498 1399 c-15 -8 -18 -24 -18 -89 0 -94 6 -100 99 -100 80 0 91 12
91 100 0 89 -11 100 -93 100 -34 0 -70 -5 -79 -11z"/>
</g>
</svg>
