<?xml version="1.0" standalone="no"?>
<!DOCTYPE svg PUBLIC "-//W3C//DTD SVG 20010904//EN"
 "http://www.w3.org/TR/2001/REC-SVG-20010904/DTD/svg10.dtd">
<svg version="1.0" xmlns="http://www.w3.org/2000/svg"
 width="204.000000pt" height="194.000000pt" viewBox="0 0 204.000000 194.000000"
 preserveAspectRatio="xMidYMid meet">

<g transform="translate(0.000000,194.000000) scale(0.100000,-0.100000)"
fill="#000000" stroke="none">
<path d="M274 1720 c-37 -15 -64 -59 -64 -104 0 -40 4 -45 360 -401 l360 -360
0 -288 0 -287 -134 0 c-120 0 -136 -2 -160 -21 -36 -28 -36 -80 0 -108 26 -20
38 -21 371 -21 l344 0 24 25 c32 31 32 69 0 100 -23 24 -29 25 -165 25 l-140
0 0 282 0 283 363 363 362 362 0 50 c0 41 -5 54 -28 77 l-27 28 -723 2 c-397
1 -732 -2 -743 -7z m1206 -265 l-125 -125 -350 0 -350 0 -125 125 -125 125
600 0 600 0 -125 -125z m-370 -370 c-52 -52 -99 -95 -105 -95 -6 0 -53 43
-105 95 l-95 95 200 0 200 0 -95 -95z"/>
</g>
</svg>
