<svg xmlns="http://www.w3.org/2000/svg" xmlns:xlink="http://www.w3.org/1999/xlink" version="1.1" id="Layer_1" x="0px" y="0px" style="enable-background:new 0 0 850.4 850.4;" xml:space="preserve" viewBox="185.51 166.22 489.94 485.38">
<style type="text/css">
	.st0{fill:#C69C6D;}
</style>
<g>
	<path class="st0" d="M512.8,555.9c1.6-1.1,3.9-3.2,4.3-2.9c2.2,1.5,4.5,3.5,5.5,5.8c2.7,6.1-2.5,14.7-9.3,15.1   c-5.1,0.3-9.3,1.3-13.9,4.2c-14.1,8.9-29,8.7-43.7,0.8c-3.2-1.7-5.4-1.2-7.5,1.4c-2,2.6-2.6,5.2-0.2,8.1   c6.5,8.3,11.5,17.3,13.7,27.7c0.6,3.1,1.7,4.9,5.4,4.6c1.4-0.1,2.9,1.6,4.4,2.5c-1.4,0.9-2.6,2-4.1,2.5c-4,1.3-8,2.5-12.1,3.3   c-1.5,0.3-3.2-0.4-4.8-0.6c0.8-1.4,1.4-3.7,2.6-4c4.5-1.1,4.6-3.9,3.5-7.4c-2.9-8.9-6.3-17.6-12.5-24.8c-1.7-1.9-3-1.8-4.4,0.2   c-0.9,1.3-1.7,2.6-2.5,3.9c-3,4.6-3.7,8.6-0.4,13.9c8.8,13.7,5.4,26.9-3.4,39.3c-2,2.8-5.3,2.8-7.2,0c-6.7-10-10.9-20.5-6.3-32.7   c1.4-3.6,3.5-7,4.9-10.6c0.6-1.5,0.7-3.5,0.1-4.9c-1.2-3-3-5.8-4.5-8.6c-1.4-2.5-3.3-2.9-4.8-0.4c-3.6,6-7,12.1-10.1,18.3   c-1.3,2.7-1.7,6-2.3,9c-0.4,2,0.3,3.3,2.5,4.1c1.5,0.5,3.6,2.9,3.3,3.8c-0.8,2.6-3.2,1.7-5.3,1.1c-4.2-1.1-8.4-2-12.5-3.2   c-1.2-0.3-2.1-1.6-3.1-2.4c1.2-0.9,2.5-2.7,3.5-2.5c5,0.7,5.9-2.2,7-6.1c2.8-10.1,6.9-19.6,14.4-27.4c1.8-1.9,1.9-4-0.6-5.6   c-0.7-0.5-1.5-1.1-1.9-1.9c-1.6-2.9-3.8-2.3-6.4-1.4c-6,2.2-11.9,4.8-18.2,6.1c-8,1.6-15.5-1.1-22.6-4.9c-2.6-1.4-4.9-3.5-7.6-4.8   c-1.3-0.7-3-0.7-4.5-0.6c-7.8,0.3-11.1-1.6-14-8.1c-1.8-4.1,0.1-10.1,4.1-12.2c0.8-0.4,2.3-0.2,3.2,0.3c0.4,0.3,0.4,1.9,0.1,2.7   c-0.6,1.6-1.7,3-2.2,4.6c-1.2,3.5,2.7,8.5,6.3,8.1c0.7-0.1,2.1-1.7,1.9-2.1c-3.3-6.7-1-13.3,0.4-19.9c0.6-2.8-0.4-4.7-2.6-6.4   c-10-7.7-21.4-10-33.8-9.2c-2.5,0.2-3.3,1.6-3.7,3.7c-0.8,3.7-1.6,7.3-2.8,10.9c-1.2,3.8,0.4,7.4,4.3,8.7c1.6,0.5,3.4,0.7,4.9,1.4   c0.9,0.4,2.2,1.6,2.1,2.3c-0.1,0.9-1.2,2-2.2,2.3c-3.8,1.4-11.6-1.9-13.1-5.7c-1.2-3-2.9-4.4-6.2-3.7c-1.5,0.3-3.2,0.1-4.7,0.1   c-5.4,0.3-7.1-1.4-6.9-6.8c0-0.8,0.1-1.6,0.3-2.3c0.9-3.9,0.3-6.7-3.7-9.1c-3.6-2.2-6.9-5.5-6.2-10.5c0.2-1.3,1.5-2.5,2.4-3.8   c1.1,1.2,3.1,2.4,3.2,3.7c0.3,3.3,1.6,5,4.6,6.6c2.5,1.3,4.4,1.3,7,0.3c3-1.2,6.4-1.5,9.4-2.7c1.4-0.5,3.2-2.1,3.3-3.3   c1.3-13.5-3-25.3-10.9-36.1c-0.5-0.7-1.9-1.6-2.6-1.4c-3.1,0.9-6.2,2-9.1,3.3c-0.4,0.2-0.4,2.6,0.2,3.1c3,2.7,1.5,4.8-0.9,6.4   c-7.6,5.1-14.7,2.3-18.7-5.1c-1.4-2.6-2.2-5.2-0.7-8.2c0.5-0.9-0.1-2.9-0.8-3.8c-12-14.4-11.9-29.8-4.1-45.9c2.5-5.1,1-9.3-4.4-11   c-1-0.3-2.7,0.1-3.5,0.8c-9.2,7.5-19.5,12.6-31.2,15.1c-1.2,0.3-2.1,2.5-2.8,3.9c-0.3,0.6,0.3,1.7,0,2.3c-0.7,1.2-1.7,2.3-2.5,3.4   c-0.9-1-2.2-1.8-2.6-3c-1.3-4.6-2.5-9.2-3.4-13.8c-0.2-1.2,0.5-2.6,0.9-3.8c1.3,0.5,3.1,0.7,3.9,1.7c3.5,4.4,5.8,5.5,10.9,3.1   c6.8-3.1,13.4-6.6,19.9-10.1c4.1-2.2,4-4.5,0.1-6.9c-1.7-1-3.3-2.2-5-3.1c-3.3-1.9-6.5-2.4-9.9,0.1c-9.3,6.6-19.7,7.7-30.3,4   c-4.3-1.5-8.1-4.7-12.1-7.2c-1.9-1.3-2-3.2-0.2-4.6c2.3-1.9,4.7-3.8,7.3-5.1c11-5.6,22.1-6.3,33.1,0.2c5.4,3.2,9.4,3.4,14.6-0.1   c6.8-4.5,6.8-6-0.4-10.1c-4.2-2.4-8.3-5.1-12.7-6.8c-3.6-1.4-7.6-1.6-11.5-1.9c-1-0.1-2.6,1.2-3,2.3c-0.9,2.1-2.1,3.8-4.2,2.5   c-0.9-0.5-1.1-3.1-0.8-4.6c0.7-3.8,1.6-7.6,2.8-11.4c0.5-1.5,1.9-2.7,2.8-4c0.8,1.4,2.2,2.8,2.3,4.2c0.1,2.6,0.8,3.9,3.5,4.7   c10.5,3.4,20.9,7,29.4,14.5c3.5,3.1,6.4,0.6,9.1-1.5c2.5-1.9,1.9-4.1,0.6-6.6c-5-9.1-6.9-18.7-5.2-29.2c1-6,3.5-11,7-15.7   c1.2-1.6,1.8-4.1,1.8-6.1c0.1-6,1-11.3,7.1-14.4c4.2-2.2,11.9-1.3,14.7,2.6c0.6,0.8,0.6,2.8,0,3.4c-0.8,0.8-2.5,1.1-3.7,1.1   c-0.9,0-1.8-1-2.7-1.5c-3.7-2.1-7.7-0.4-8.8,3.7c-0.2,0.8-0.1,2,0.3,2.5c0.5,0.4,1.7,0.5,2.4,0.2c5.9-2.4,11.6-1.3,17.2,1.1   c3.3,1.4,5.3,0.2,7.4-2.8c6.8-9.5,10-19.9,9.6-31.5c-0.1-3.7-1.6-5.8-5.5-6.2c-2.6-0.2-5.1-1.4-7.6-1.8c-8.4-1.4-10.2,0.1-11.4,7.1   c-0.2,1.2-2.1,2.1-3.2,3.1c-0.9-1.2-2.6-2.5-2.5-3.7c0.2-5.1,2.9-9,7.3-11.2c2.7-1.3,3.3-3,3-5.6c-0.2-1.7-0.3-3.4-0.4-5.1   c-0.3-5.4,3-8.1,8.5-6.7c1.3,0.3,2.5,0.7,3.8,1c2.1,0.5,3.3,0,4.2-2.3c2.1-5.4,6.8-7.9,12.3-8.4c1.4-0.1,3,1.4,4.5,2.1   c-1.2,1.1-2.3,3-3.7,3.3c-7.5,1.7-9.4,5.3-6.7,12.4c1.2,3.1,1.5,6.6,2.6,9.8c0.4,1.1,1.9,2.4,3.1,2.6c2.3,0.4,4.9,0.7,7.1,0.1   c5.8-1.7,12.3-1,17.5-4.9c3.1-2.3,6.7-4,10-5.9c2.8-1.6,3.5-3.6,1.9-6.5c-0.6-1.1-0.7-2.7-1.5-3.6c-0.9-0.9-2.7-2.1-3.5-1.8   c-2.7,1-4.6,1.1-6.7-1.2c-2.7-2.9-4.1-6-2.9-10c1.9-6,6.3-9.5,12.6-9c4.3,0.4,7.5-1.2,10.9-3.4c13.7-9,27.8-9.2,42.1-1.6   c4.4,2.3,10.2,0.3,11.6-4.3c0.3-1-0.2-2.7-0.9-3.5c-8.1-9.1-12.9-19.8-15.4-31.6c-0.2-0.9-1.7-1.9-2.9-2.2   c-1.2-0.4-2.7,0.2-3.9-0.2c-1-0.4-1.8-1.5-2.6-2.3c0.9-0.9,1.7-2.3,2.8-2.6c4.8-1.2,9.7-2.2,14.6-3.1c1.2-0.2,2.5,0.5,3.7,0.8   c-0.6,1.3-0.9,3.1-1.9,3.8c-4.2,2.7-5.4,4.4-3.5,8.8c3.1,7.3,6.6,14.4,10.4,21.3c2.1,3.8,4.5,3.8,6.9,0.4c1.9-2.6,3.3-5.6,4.4-8.6   c0.5-1.2,0.1-3.2-0.7-4.3c-3.8-6.1-6.1-12.7-7.2-19.6c-0.5-3,0.7-6.5,2-9.4c2.3-5.2,5.2-10.1,8.1-14.9c1.4-2.3,3.8-2,5.2,0.3   c3.7,6.1,7.7,12,8.7,19.5c1.1,8.4-1,15.9-5.7,22.6c-2.6,3.7-2,6.7,0.1,10.1c0.9,1.6,1.7,3.2,2.6,4.8c1.2,2.3,4,2.9,5.4,0.9   c3-4.2,5.7-8.6,8.1-13.1c2-3.9,3.3-8.2,4.9-12.3c1.1-2.9,0.2-4.8-2.7-5.7c-0.7-0.2-1.7-0.6-2-1.1c-0.5-1-1-2.4-0.7-3.4   c0.2-0.6,2-1.3,2.9-1.1c4.7,1,9.4,2,14,3.4c1.4,0.4,2.4,2.1,3.5,3.2c-1.5,0.6-3.1,1.9-4.5,1.8c-2.6-0.2-4,0.1-4.7,3.1   c-0.9,4.2-2.1,8.4-4,12.2c-2.7,5.4-6,10.5-9.4,15.6c-3,4.4-3.4,6.8-0.7,9.8c2.6,2.9,5.5,3.4,8.8,1.3c13.9-8.9,32.6-6.4,45.2,2.8   c1.5,1.1,3.8,2.1,5.6,1.8c5.2-0.7,9.2,1.7,13.1,4.4c2.4,1.7,3.1,9.3,1.2,12.1c-0.7,1-1.3,2.1-2.2,2.8c-1.2,0.9-3.2,2.2-3.9,1.8   c-1.9-1.2-1.9-3.1-0.4-5c3-3.9,1.6-8.6-3.1-10.1c-0.9-0.3-2.3-0.3-2.9,0.2c-0.5,0.4-0.4,1.8-0.1,2.7c1.8,6.1,2.2,12-1.5,17.6   c-1.5,2.2-1.2,4,0.9,5.4c7.2,4.5,14,9.5,23.1,10.3c4.7,0.4,9.2,2.3,13.7-0.2c1.1-0.6,2.6-1.4,2.8-2.4c1.1-5,2.2-10.1,2.8-15.2   c0.4-3.6-2-5.4-5.5-5.7c-0.7,0-1.5,0.2-1.9-0.1c-1.2-0.7-2.3-1.7-3.4-2.6c1.2-1,2.3-2.7,3.6-2.9c4.7-0.7,10.8,2.8,12.3,7.5   c1.2,3.6,3.2,3.5,6,2.9c1.9-0.4,3.8-1.1,5.8-1.1c3.4,0,5.5,2.5,5.4,5.9c-0.1,1.4-0.1,2.9-0.3,4.3c-0.7,3.8-0.5,6.7,4.4,7.9   c3.4,0.8,6.9,9.3,5.8,12.8c-0.3,0.9-1.4,1.9-2.4,2.2c-0.7,0.2-1.9-0.7-2.5-1.4c-0.6-0.6-0.8-1.6-1-2.5c-1.5-6.7-5.2-8.8-11.7-6.7   c-2.7,0.8-5.7,1-8.3,2.2c-1.7,0.8-4.1,2.5-4.3,4c-1.4,12.9,2.1,24.4,10.4,34.5c2,2.4,4.4,3,6.5,1.5c5.1-3.6,10.5-2.1,15.9-1.6   c1.1,0.1,2.3-0.4,3.5-0.6c-0.3-1.3-0.3-3-1.1-3.9c-2-2-4.1-4-7.4-1.2c-1.5,1.3-4.6,3.7-6.3,0.3c-1.5-2.8,1.3-4.3,3.4-5.7   c7.9-5.2,18.2,2.1,18,10.4c-0.1,5.3,1.9,9.2,4.6,13.6c4.7,7.8,7,16.3,4.9,25.8c-1.3,6.1-2.9,11.8-6.3,17c-2.3,3.6,1.8,4.7,3.3,6.5   c1.7,1.9,4.2,2.2,6.4,0.4c8.6-6.9,18.1-11.9,29-14.1c2.3-0.5,3.7-1.7,3.6-4.3c0-1.2,0.5-2.6,1.2-3.6c0.7-0.9,2.2-1.8,3-1.6   c1,0.2,2,1.6,2.3,2.6c1.3,4.7,2.4,9.5,3.3,14.3c0.2,0.8-0.7,2.3-1.4,2.6c-0.9,0.3-2.4,0-3.1-0.7c-1.5-1.4-2.8-4.7-4-4.6   c-3.8,0.2-7.8,1.1-11.4,2.7c-5.8,2.6-11.4,5.8-16.9,9c-1.1,0.6-2.1,2.3-2.1,3.4c0.1,1,1.6,2,2.6,2.8c0.9,0.7,2.1,1,3.1,1.7   c4.9,3.5,8.7,3.5,13.8,0.2c9.2-6.2,23.7-6.2,33-0.2c2.5,1.6,5.2,3,7.7,4.7c2.1,1.4,2.4,4.5,0.4,5.6c-4.4,2.5-8.9,5.1-13.6,6.9   c-10.8,4.1-20.8,1.4-30.3-4.5c-1.4-0.9-3.6-1.6-5-1.1c-3.7,1.4-7.1,3.3-10.5,5.3c-2.3,1.3-2.2,3.1,0,4.6   c7.8,5.7,16.2,10.2,25.7,12.4c3,0.7,5.3,1,6.2-3c0.3-1.2,2.4-1.9,3.6-2.8c0.5,1.4,1.5,2.9,1.3,4.3c-0.6,4.6-1.5,9.2-2.5,13.8   c-0.2,1-1.5,2.3-2.4,2.4c-0.8,0.1-2.5-1.2-2.6-2c-0.9-5-3.2-7.2-8.8-8.7c-8.9-2.4-17.3-6.8-24.5-12.9c-2.6-2.2-5.1-2.3-7.7,0.2   c-3.8,3.8-3.6,4.6-1.5,8.7c5.9,11,7.9,22.6,3,34.6c-1.6,3.8-4.3,7-6.1,10.7c-0.9,1.9-1.3,4.2-1.3,6.3c0.2,7.3-2.9,12.6-10.2,14.1   c-3.1,0.7-6.8-1-10-2.2c-0.6-0.2-0.3-3-0.4-4.5c1.3,0.1,2.9-0.3,3.9,0.3c5,3.1,9.6,1.9,11.4-3.5c0.3-1,0.3-2.5-0.3-3.2   c-0.5-0.6-2.2-0.8-3.1-0.5c-6.5,2.4-12.8,1.8-19.2-0.8c-1-0.4-3.4,0.2-3.9,1.1c-3.3,5.5-6.7,11.1-9.4,17   c-2.7,5.8-2.6,12.1-2.3,18.4c0.1,2.1,0.5,3.4,2.9,3.9c3.8,0.8,7.6,1.8,11.4,2.9c5.3,1.6,9.5-1.3,10.4-6.8c0.2-1.5,2.1-2.7,3.2-4   c0.9,1.4,2.3,2.8,2.4,4.3c0.5,4.9-3.6,10.2-8.5,12.1c-1,0.4-1.9,2.2-2,3.4c-0.1,2.9,0.5,5.7,0.6,8.6c0.1,2.7-1.3,4.2-4.1,4.1   c-2.8,0-5.5,0-8.3-0.3c-2.8-0.3-4.4,0.7-5.5,3.3c-1.9,4.3-7.7,7.2-12.4,6.2c-1-0.2-1.7-1.2-2.6-1.8c0.7-0.9,1.5-1.9,2.2-2.8   c0.1-0.1,0.3,0,0.4-0.1c8.4-2.2,9.8-4.7,7.6-13.1c-0.8-3-1.6-6-2.7-9c-0.4-1-1.6-2.2-2.6-2.3c-12.7-1.5-24.1,1.7-34.4,9.2   c-2.9,2.1-3.8,4.8-2,7.8c3,5.1,2.7,10.4,1.6,15.9c-0.2,1.1,0.3,2.4,0.5,3.6c1.2-0.6,2.7-0.8,3.7-1.7   C517.9,564,517.5,561.3,512.8,555.9z M429.4,543.3c77.4,1,137.7-63.2,135.7-137.5c-1.2-42.6-19.7-77.7-53.8-103.7   c-30.3-23-65-31.2-102.7-25.7c-56.8,8.4-116.8,59.2-113.7,139.5C297.6,485.7,356.9,544.5,429.4,543.3z M363.1,536.1   c-26.7-14-46.5-34.6-61-60.3c-4.9,3.7-5.2,6-1.7,9.8c0.7,0.8,1.2,1.7,1.8,2.6c7.2,10.6,10.6,22.3,10.2,35.1c0,0.9,1.4,2.5,2.4,2.6   c4.8,0.7,9.6,1.2,14.4,1.5c9.4,0.6,16.8,5.6,24.1,10.7C356.9,540.7,359.2,540.7,363.1,536.1z M301.8,343c2.2-3.5,4.4-7,6.5-10.5   c6.5-10.5,14.5-19.9,23.7-28.1c8.9-7.9,18.2-15.4,29.1-20.6c1.8-0.9,2.2-2.3,0.2-3.6c-2.6-1.7-4.9-2.5-7.8,0   c-2.9,2.4-6.2,4.5-9.6,6.2c-8.4,4.3-17.4,6.5-27,5.9c-2.6-0.2-5.1-0.3-4.9,3.7c0.7,13.7-3.4,25.9-11.7,36.8   C297.5,336.5,297.8,339.5,301.8,343z M557.8,475.2c-14.3,26.9-35.1,47-61.6,61.3c4.6,4.1,6.7,4.3,9.5,2   c10.9-8.9,23.5-12.9,37.4-12.9c1.4,0,2.8,0,4.4,0c-0.1-1.6-0.1-2.6-0.2-3.7c-0.6-13.4,3-25.5,11.5-36   C562.7,481.4,562.7,481.4,557.8,475.2z M557.9,342.3c4.6-4.7,4.7-5.5,1.5-9.2c-8.9-10.1-12.4-22.1-12.1-35.3   c0.1-5.3,0.4-5.4-5.1-5.3c-12.8,0.3-24.4-2.9-34.5-10.9c-5.1-4-5-4.2-10.6,0.1c7.9,5.4,16.3,10.3,23.6,16.3   c7.5,6.2,14.6,13.1,20.9,20.6C547.6,326,552.4,334.3,557.9,342.3z M564.1,467.9c-0.1,8.3,1.1,9.4,8.4,7.5   c5.9-1.5,11.6-1.2,16.9,1.4c2.9,1.4,4.3,0.6,5.8-1.7c7.6-11.4,7-23.1,1.3-34.9c-2-4.1-2.6-3.9-5.4-0.3c-0.6,0.7-1.3,1.3-1.8,2.1   c-2.2,3.9-4.9,7.6-6,11.7c-0.5,1.8,2.7,4.4,3.6,6.9c0.5,1.2-0.4,2.9-0.7,4.4c-1.3-0.4-2.9-0.5-3.9-1.3c-1.6-1.3-2.6-3.2-4.1-4.7   c-2.8-2.9-7.5-2.6-10.5,0C564.9,461.8,563.8,464.8,564.1,467.9z M564.4,349.7c-0.7,7.6,4.2,12.8,10.3,11.3c3.2-0.8,5.6-2.5,7.3-5.5   c0.7-1.2,2.9-1.5,4.3-2.2c0.2,1.7,0.5,3.3,0.5,5c0,0.6-0.8,1.3-1.3,1.9c-2.8,2.6-2.7,5.6-0.9,8.5c2.1,3.4,4.4,6.8,6.8,10   c0.7,1,2.4,2.3,2.9,2.1c1.3-0.6,2.6-1.9,3-3.2c1.3-4.5,2.4-9.1,3.2-13.8c1.2-7.9-1.4-14.9-6.1-21.2c-0.7-1-3.3-1.8-4.2-1.2   c-6.8,3.8-13.7,3.1-20.6,1c-3.5-1.1-4.6,0.8-5.2,3.4C564.2,347,564.4,348.4,564.4,349.7z M480.1,240.3c-0.1-0.4-0.1-0.7-0.2-1.1   c-6.1,1.2-12.3,2.2-18.3,3.8c-3.8,1-4.1,3.8-0.9,6.2c2.2,1.6,4.7,2.8,6.9,4.5c4.2,3.3,8,5,12.4,0.1c1.5-1.7,4.4-2.8,6.1,0   c1.5,2.5-1,3.6-2.8,4.7c-0.8,0.5-1.5,1-2.2,1.7c-5.4,4.9-3.4,12.1,1.7,14.7c3.8,1.9,7.2,0.9,10.7,0.8c3.8-0.1,4.6-1.8,3.5-5.4   c-2.1-6.9-2.8-13.8,1.1-20.4c0.5-0.8-0.2-3-1.1-3.8C492.4,241.6,486.7,239.6,480.1,240.3z M285.7,362.1c0.2-0.3,0.4-0.7,0.6-1   c3.8,0.6,6-1.2,7.6-4.3c1.8-3.5,2.2-6.9,1.2-10.9c-1.1-4-2.6-4.8-6.3-3.4c-5.3,1.9-10.8,2.5-16.2,0.3c-6.8-2.8-6.9-2.8-9.9,3.7   c-0.4,0.8-0.9,1.6-1.3,2.4c-4.3,10.2-3,20.1,1.7,29.8c1.3,2.6,3,2.8,4.7,0.3c2.3-3.4,4.6-6.9,6.9-10.4c1.8-2.6,2.5-5-0.4-7.5   c-1.1-0.9-1.8-2.7-2-4.1c-0.2-1.2,0.5-2.5,0.8-3.8c1.3,0.4,2.8,0.6,4,1.3c0.9,0.6,1.3,2,2.2,2.7C281.3,359,283.5,360.5,285.7,362.1   z M477,580.1c0.1-0.3,0.2-0.6,0.3-0.9c7.2,0.1,13.7-2,19.5-6.2c0.9-0.7,1.7-3.1,1.2-4c-3.6-7.1-3.6-14.2-0.6-21.4   c0.4-0.9,0.2-2.6-0.4-3.1c-4.3-3.5-12.3-2.6-16.6,1.6c-2.6,2.5-3.4,5.5-1.4,8.5c1.4,2.2,3.7,3.8,5.4,5.9c0.9,1.1,1.3,2.5,2,3.8   c-1.4,0.5-2.8,1.6-4.1,1.4c-1.7-0.3-3.5-1.3-4.7-2.6c-2-2-3.9-1.8-6-0.4c-3.6,2.4-7.3,4.6-10.8,7.1c-3.1,2.2-3,4.3,0.5,5.6   C466.5,577.2,471.8,578.6,477,580.1z M362.3,273.2c2.6,3.7,7.2,3.3,11,2.4c8.2-2,11.6-7.6,5.1-14.7c-1.3-1.4-3.2-2.2-4.4-3.7   c-0.8-0.9-1.3-2.9-0.8-3.7c0.6-0.9,2.5-1.3,3.7-1.1c1.4,0.3,3,1.3,3.9,2.4c1.8,2.1,4,2.3,6,1.2c4.1-2.2,8.3-4.5,12-7.3   c2.7-2,2.1-4.4-1-5.7c-10.7-4.5-21.4-4.8-32,0.1c-5,2.3-5.5,4.4-3.3,9.5c0.9,2.1,1.6,4.5,1.5,6.8   C363.9,263.9,363,268.4,362.3,273.2z M265.1,437.4c-3.8,4-4.7,8.7-5.5,13.5c-1.5,8.7,0.3,16.8,4.8,24.4c1.4,2.3,2.8,2.8,5.5,1.6   c2.6-1.2,5.7-2,8.6-2.1c4,0,8,1,12,1.2c1.3,0.1,3.5-0.7,4-1.7c2.4-5.4,1.4-10.4-2.3-15c-2-2.5-4.8-3.3-7.3-1.8   c-2.8,1.7-4.9,4.4-7.5,6.4c-1.1,0.8-2.5,1.2-3.8,1.7c-0.5-1.5-1.4-3-1.3-4.4c0.2-1.4,1.5-2.7,2.2-4.1c0.6-1.1,1.8-2.5,1.5-3.4   C273.8,447.6,270.6,441.9,265.1,437.4z M384.3,579.3c2.9-0.8,8.3-2,13.4-3.8c3.5-1.2,3.6-3.5,0.6-5.6c-3.5-2.4-7.3-4.6-10.8-7   c-2.5-1.7-4.3-1.2-6.6,0.8c-1.6,1.3-4.1,1.6-6.3,2c-0.6,0.1-1.9-1.1-2.1-1.9c-0.1-0.7,0.7-1.7,1.4-2.4c1.8-1.7,3.9-3.1,5.5-5   c3.2-3.8,2.9-8.2-1.3-10.8c-2.8-1.7-6.2-2.9-9.5-3.1c-4.7-0.4-7.2,3-5.5,7.3c2.7,6.9,1.6,13.2-1.7,19.5c-0.4,0.9,0.1,3,0.8,3.5   C368.3,576.4,374.6,579.2,384.3,579.3z M284.9,401.5c0.6-2.3,0.9-3.4,1.2-4.5c1.9-9,3.7-18.1,5.6-27.1c0.2-0.8,0.1-1.9-0.3-2.4   c-1.4-1.5-9,0.1-10.2,2c-3.3,4.9-6.7,9.6-9.7,14.6c-0.9,1.5-1.4,4.6-0.6,5.5C275,393.6,279.7,397.2,284.9,401.5z M471.9,272.2   c0-3,0.2-5.5-0.1-7.9c-0.1-1-1.1-2.2-2.1-2.9c-4.9-3.2-10-6.1-14.7-9.4c-2.7-1.9-4.9-1.8-6.9,0.5c-2.7,3-5.2,6.2-7.5,9.5   c-2.5,3.4-1.9,4.6,2.4,5.3c6.7,1,13.5,1.9,20.2,2.9C465.9,270.6,468.6,271.4,471.9,272.2z M387.4,271.9c5.6-1.1,10.5-2,15.5-2.9   c4.9-0.9,9.8-1.8,14.7-2.4c3-0.4,3.8-1.5,2-3.9c-2.5-3.4-5.1-6.7-7.8-9.8c-2.8-3.1-4.7-2.8-8.1-0.3c-4.4,3.1-9.3,5.6-13.8,8.5   c-1.1,0.7-2.2,2-2.4,3.2C387.1,266.6,387.4,269,387.4,271.9z M573.1,452.3c1.8-1.2,4.2-2,5.4-3.6c3.7-5,7.1-10.3,10.4-15.5   c0.5-0.9,0.6-2.9,0-3.5c-3.9-3.5-8-6.9-12.3-10.1c-1.4-1-3-0.8-3.4,1.6c-1.5,8.7-3.1,17.4-4.6,26.1   C568.1,450.5,569,452.3,573.1,452.3z M471.9,547.2c-10.5,1.5-20.6,3-30.6,4.5c-2.2,0.3-2.7,1.9-1.5,3.4c3.1,4.1,6.4,8.2,9.9,12   c0.7,0.7,3,0.8,4,0.2c5.2-3.1,10.2-6.4,15.1-9.7c1.2-0.8,2.7-2,2.9-3.3C472.3,551.9,471.9,549.3,471.9,547.2z M291.3,451.5   c0-0.8,0.1-1.6,0-2.3c-1.7-9.2-3.4-18.4-5-27.6c-0.5-2.8-2.1-3.5-4.1-2c-4,3.1-7.9,6.4-11.5,9.9c-0.6,0.6-0.5,2.8,0,3.7   c3.6,5.6,7.3,11,11.1,16.5c0.5,0.8,1.6,1.5,2.4,1.6C286.4,451.7,288.6,451.5,291.3,451.5z M568.5,367.8c2,11,3.9,21.5,5.8,32.3   c6.1-2.3,10.2-6.3,14-10.5c0.8-0.8,0.7-3.2,0.1-4.3c-3.2-5.5-6.8-10.8-10.3-16.1c-0.6-0.8-1.6-1.8-2.5-1.8   C573.5,367.2,571.2,367.6,568.5,367.8z M387.9,546.6c0,1.8,0.4,3.3-0.1,4.6c-1.3,3.4,0.4,4.8,3.1,6.4c4.8,2.9,9.3,6.2,13.8,9.5   c2.2,1.6,4.1,1.2,5.6-0.5c3.2-3.6,6.4-7.3,9.1-11.2c1.7-2.5-0.2-3.3-2.6-3.6c-4.2-0.4-8.3-0.9-12.4-1.7   C399,549.1,393.7,547.9,387.9,546.6z M649.7,415.9c4.5-1.3,8.9-2.5,13.2-3.9c1-0.3,2.5-1.6,2.3-2.2c-0.2-1-1.3-2.2-2.3-2.8   c-8.9-4.8-17.9-5.1-26.8,0c-1,0.6-1.9,1.6-2.8,2.4c0.9,0.9,1.7,2.2,2.7,2.5C640.4,413.4,644.9,414.6,649.7,415.9z M423,627.5   c1.6,4.8,3,9.7,4.8,14.3c1.1,2.9,3,2.3,4.1-0.1c1.3-3,2.4-6,3.2-9.2c1.6-6.5,0.2-12.7-2.7-18.5c-1.6-3.2-3.6-3.3-4.9-0.1   C425.6,618.1,424.5,622.6,423,627.5z M436.2,191.6c-1.5-4.8-2.8-9.5-4.4-14.1c-0.6-1.6-1.9-3.1-3.8-0.9c-5.3,6.1-5.5,22-0.5,28.5   c1.7,2.1,3.4,2.2,4.4-0.4C433.6,200.5,434.8,196.2,436.2,191.6z M210.6,415.7c4.4-1.4,9.1-2.4,13.4-4.4c2.9-1.3,2.7-3.2-0.3-4.6   c-8.6-3.9-17.2-5.1-25.9-0.1c-1.1,0.6-2.7,2-2.6,2.8c0.2,1.1,1.6,2.4,2.8,2.8C201.9,413.5,205.9,414.4,210.6,415.7z M592.6,409.6   c-2.4-2.9-4-5.6-6.3-7.5c-0.8-0.6-3.4,0.6-5,1.4c-2,1-3.8,2.3-5.7,3.5c-2.4,1.5-2.1,3.3-0.1,4.7c1.9,1.4,4,2.4,6.1,3.4   c1.5,0.7,3.9,2,4.7,1.4C588.5,414.8,590.2,412.3,592.6,409.6z M439.3,564.5c-0.4-0.6-0.9-1.1-1.3-1.7c-2.3-3.3-4.5-6.6-7-9.7   c-0.4-0.5-2.7-0.2-3.1,0.4c-2.1,2.9-3.9,6-5.7,9.2c-0.3,0.5-0.3,1.6,0,1.8c2.4,2,4.6,4.3,7.4,5.5c1,0.4,3.2-1.9,4.9-2.9   C436.1,566.1,437.7,565.3,439.3,564.5z M430.3,265.7c0.4-0.4,1.2-0.9,1.8-1.7c1-1.3,1.9-2.8,2.9-4.2c3.4-4.8,3.4-4.8-1.1-8.4   c-3.6-2.9-8.5-2.1-10.9,2C421.5,255.8,426.8,265.5,430.3,265.7z M285,409.7c-0.5-1-0.6-1.9-1.2-2.3c-3-2.1-5.8-4.7-9.2-5.6   c-1.2-0.3-3.7,3.4-5.3,5.5c-0.7,0.9-1,2.9-0.5,3.6c1.8,2.3,4,4.2,6.1,6.2c0.1,0.1,0.5-0.1,0.7-0.3c2.4-1.5,4.9-2.9,7.2-4.6   C283.7,411.6,284.3,410.6,285,409.7z M239.5,409.4c3.2,1.8,5.6,3.1,8,4.6c4.2,2.7,6.1,2.7,9.3-1.2c1.1-1.4,1.6-4.5,0.8-5.8   c-1.4-2-4.6-4.7-6.1-4.2C247.4,404.1,243.8,406.9,239.5,409.4z M437,585.4c-1.3-1.4-2.6-2.9-3.9-4.4c-1.7-1.8-3.9-2.8-5.8-0.8   c-2,2-5.7,3.6-3.6,7.6c1.3,2.5,2.7,5.1,4.3,7.4c0.5,0.7,2.5,1.2,2.7,1C432.8,592.8,434.7,589.3,437,585.4z M606.4,401.7   c-1.9,2.9-5.3,5.8-5,8.4c0.6,5.1,5.8,6.5,10.4,3.5c0.4-0.3,0.9-0.6,1.3-0.9c1.6-1.2,3.2-2.3,4.7-3.5c-1.6-1.2-3.1-2.4-4.8-3.5   C611.2,404.5,609.3,403.4,606.4,401.7z M436.8,233.8c-1.2-2.3-2-3.9-3-5.4c-1.2-1.9-2.6-3.6-3.9-5.4c-1.5,1.7-3.3,3.1-4.5,5   c-3.2,5.1-3.1,6.2,1.4,9.7c1.1,0.8,3.2,1.8,4,1.3C433.1,237.6,434.9,235.5,436.8,233.8z M567.5,275.5c0.6-2.4-0.8-3.1-3-2.9   c-5.6,0.4-9.6,4.7-9.8,10.1c-0.1,2.5,1.1,3.1,3.4,3C562.9,285.2,567.2,280.7,567.5,275.5z M555.3,533.4c-1.6,4.6,1.4,11.4,8.3,12.6   c3.3,0.6,4.1,0.3,4-3C567.3,536.9,562.4,533.1,555.3,533.4z M303.1,533.5c-7,0.1-11.8,5.1-11.3,10.7c0.1,0.8,1,2,1.7,2.2   c4.9,0.9,11.8-5,11.4-9.9C304.8,535.3,303.5,534.1,303.1,533.5z M293.9,272.2c-0.4,0.5-1.6,1.4-1.7,2.4c-0.5,5.1,4.3,10.3,9.6,10.3   c0.9,0,2.6-1.7,2.6-2.6C304.3,277.4,299.7,272.8,293.9,272.2z M595.7,404.5c6.6-5.4,6.6-5.8,2.2-10.1c-1.9-1.8-3.3-2.7-5.5-0.6   c-2.2,2.2-2.4,4.1-0.2,6.3C593.4,401.4,594.4,402.9,595.7,404.5z M419,237.6c-2.5,3-4.9,4.9-5.9,7.4c-0.3,0.9,3.5,4.7,4.2,4.4   c2.5-1.1,5.2-3,6.5-5.4C424.2,243.3,421.1,240.4,419,237.6z M594.7,427.4c2.6-2.9,4.5-5,6.4-7.1c-2-1.7-4-3.4-6-5.1   c-1.5,2.1-3.8,4-4.2,6.3C590.7,422.9,593.1,424.9,594.7,427.4z M417.6,580.2c0.5,0,1,0.1,1.6,0.1c1.5-2.1,4.1-4.1,4.3-6.3   c0.1-1.3-3.2-3.5-5.3-4.3c-1.1-0.4-4.4,2-4.3,2.2C414.8,574.9,416.2,577.5,417.6,580.2z M442.5,568c-2.8,2.7-5.1,4.3-6.4,6.6   c-0.3,0.6,2.7,3,4.3,4.6c1.9-1.9,4.1-3.6,5.4-5.9C446.2,572.6,444.1,570.5,442.5,568z M265.2,427c1.2-2.5,3.1-4.7,2.7-6.3   c-0.6-2.1-3-3.7-4.6-5.6c-1.4,1.3-3.5,2.4-3.9,4C258.3,423,261.9,424.3,265.2,427z M345.8,262.8c0.6-0.2,1.1-0.4,1.7-0.6   c0.8-3.6,1.6-7.2,2.1-10.9c0-0.3-2-1.5-2.8-1.3c-3.2,0.9-4.9,3.7-4.6,6.6C342.5,258.7,344.6,260.7,345.8,262.8z M264.4,392   c-2.2,2.6-4.5,4.3-5.2,6.5c-0.3,0.9,2.7,2.9,4.1,4.3c1.6-1.9,3.7-3.7,4.5-5.9C268.3,396.1,266,394.1,264.4,392z M281,491.1   c-2.9-0.7-5.5-1.5-8.2-2c-1-0.2-2.8-0.2-3,0.3c-0.5,0.8-0.4,2.7,0.2,3.2c1.6,1.4,3.4,3,5.4,3.3C278.1,496.3,280.2,494.6,281,491.1z    M441.9,239.2c-0.5-0.1-1-0.1-1.6-0.2c-1.4,1.8-3.6,3.6-3.8,5.5c-0.1,1.2,2.8,3.2,4.7,3.8c1.2,0.3,3-1.4,4.5-2.2   C444.5,243.8,443.2,241.5,441.9,239.2z M586.7,484c0.1-0.7,0.3-1.3,0.4-2c-1.1-0.6-2.2-1.6-3.4-1.7c-2.8-0.2-5.7-0.1-8.6,0.1   c-0.8,0.1-1.5,1-2.2,1.6c0.8,0.8,1.5,2.1,2.3,2.2C579,484.3,582.9,484.1,586.7,484z M354.7,565.2c1.8-0.7,2.8-0.9,2.8-1.2   c0.4-3.6,0.6-7.3,0.7-11c0-0.3-1.3-0.8-2-0.8c-0.6,0.1-1.5,0.9-1.5,1.4C354.7,557.2,354.7,560.8,354.7,565.2z M574.2,336.8   c4,2.7,7.2,2.6,11.3-0.3C582.4,333.3,576.8,333.4,574.2,336.8z M286.8,337.4c-3.5-4.4-6.9-3.7-10.1-2.7c-0.7,0.2-1.2,1.1-1.8,1.7   c0.6,0.5,1.3,1.6,1.9,1.6C279.7,338,282.8,337.7,286.8,337.4z M503.3,266.6c3-5.5,2.7-10-0.9-11.9   C502,258.6,499.9,262.4,503.3,266.6z M274.4,481.7c3.4,2.7,6.9,2.5,9.1,0C280.6,481.7,277.8,481.7,274.4,481.7z M357,256.3   c-0.4,0-0.7,0.1-1.1,0.1c0,2.8,0,5.7,0,8.5c0.4,0,0.7,0,1.1,0C357,262,357,259.1,357,256.3z"/>
	<path class="st0" d="M429.8,534.1c-68.7,0.4-126.2-55.6-126-125.4c0.2-67.7,55.6-123.8,124.7-124.2   c70.8-0.5,126.6,55.4,127.1,124.4C556.1,478.2,498.6,534.5,429.8,534.1z M429,288.4c-66,0.5-119.8,53.4-121.1,119.8   c-1.1,61.4,52.7,129.8,135.7,121.3c52.1-5.4,107.6-50.6,107.8-120.1C551.5,342.6,496.7,288.1,429,288.4z"/>
	<path class="st0" d="M391.5,465.5c-0.3-6.5-0.9-12,3.9-17.2c8.9-9.8,16.8-20.3,25.2-30.6c0.6-0.8,1.2-1.7,2.1-3c-8,0-15.5,0-23.3,0   c0-4.6,0-8.8,0-13.4c7.5,0,14.9,0,23.2,0c-6.2-7.2-11.9-13.9-17.6-20.4c-3.6-4.2-7.3-8.2-10.7-12.5c-0.9-1.2-1.2-3.1-1.3-4.7   c-0.2-2.7-0.1-5.5-0.1-8.5c25.1,0,49.8,0,74.8,0c0,4.5,0,8.9,0,13.6c-17.1,0-34,0-51.9,0c2.7,3.2,4.7,5.7,6.7,8.1   c6.5,7.5,13,15.1,19.6,22.5c0.8,0.9,2.3,1.6,3.6,1.7c2.7,0.3,5.5,0.1,8.4,0.1c0,4.5,0,8.6,0,13.3c-3.1,0-6.2-0.1-9.3,0.1   c-1.3,0.1-3,0.5-3.8,1.5c-9.3,11.2-18.4,22.4-27.6,33.7c-0.2,0.3-0.3,0.7-0.6,1.5c18.7,0,37.1,0,56,0c0,4.3,0.2,8.3-0.2,12.1   c-0.1,0.8-2.4,2-3.6,2c-17.4,0.1-34.7,0.1-52.1,0.1C405.9,465.5,398.9,465.5,391.5,465.5z"/>
</g>
</svg>