<?xml version="1.0" standalone="no"?>
<!DOCTYPE svg PUBLIC "-//W3C//DTD SVG 20010904//EN"
 "http://www.w3.org/TR/2001/REC-SVG-20010904/DTD/svg10.dtd">
<svg version="1.0" xmlns="http://www.w3.org/2000/svg"
 width="199.000000pt" height="190.000000pt" viewBox="0 0 199.000000 190.000000"
 preserveAspectRatio="xMidYMid meet">

<g transform="translate(0.000000,190.000000) scale(0.100000,-0.100000)"
fill="#000000" stroke="none">
<path d="M638 1713 c-20 -23 -68 -118 -68 -135 0 -8 16 -46 35 -87 19 -40 35
-77 35 -81 0 -5 -33 -26 -72 -47 -146 -75 -250 -211 -283 -368 -18 -88 -19
-142 0 -228 52 -247 269 -425 525 -431 l77 -2 57 -52 c119 -108 280 -161 432
-142 131 17 227 65 323 162 79 79 127 174 147 291 13 77 13 97 0 174 -38 218
-184 381 -394 439 -34 9 -64 15 -67 12 -3 -3 8 -34 25 -69 16 -35 30 -68 30
-74 0 -5 21 -19 48 -29 59 -25 160 -124 190 -188 79 -170 40 -362 -96 -484
-15 -13 -56 -39 -92 -56 -61 -31 -70 -33 -175 -33 -99 0 -116 3 -168 27 -80
38 -160 117 -200 197 -30 61 -32 73 -32 171 0 97 2 110 32 172 17 37 52 87 76
112 49 48 144 103 157 89 17 -17 40 -119 40 -173 0 -108 -37 -196 -122 -286
l-48 -51 35 -47 c20 -25 43 -46 53 -46 24 0 113 99 149 166 117 221 80 478
-95 651 -41 40 -88 75 -136 99 l-74 36 30 67 c51 112 50 103 13 179 -18 38
-40 72 -50 76 -9 3 -85 6 -169 6 -133 0 -155 -2 -168 -17z m270 -141 c-1 -5
-14 -34 -28 -65 -25 -56 -26 -57 -66 -57 -41 0 -42 1 -68 59 -14 32 -26 61
-26 65 0 3 43 6 96 6 53 0 94 -4 92 -8z m39 -312 c58 -20 133 -66 133 -81 0
-5 -19 -18 -42 -30 -66 -34 -170 -144 -206 -219 -62 -126 -77 -296 -37 -409
l15 -44 -56 6 c-76 8 -169 54 -228 113 -169 169 -150 462 39 606 99 75 262
100 382 58z"/>
</g>
</svg>
