<?xml version="1.0" standalone="no"?>
<!DOCTYPE svg PUBLIC "-//W3C//DTD SVG 20010904//EN"
 "http://www.w3.org/TR/2001/REC-SVG-20010904/DTD/svg10.dtd">
<svg version="1.0" xmlns="http://www.w3.org/2000/svg"
 width="202.000000pt" height="208.000000pt" viewBox="0 0 202.000000 208.000000"
 preserveAspectRatio="xMidYMid meet">

<g transform="translate(0.000000,208.000000) scale(0.100000,-0.100000)"
fill="#000000" stroke="none">
<path d="M382 1800 c-12 -5 -26 -20 -32 -32 -16 -40 -63 -507 -56 -561 18
-132 112 -225 247 -243 l49 -7 0 -338 c0 -197 4 -348 10 -364 11 -28 53 -49
81 -40 49 16 49 13 49 389 l0 353 52 6 c105 13 195 78 233 171 21 51 19 175
-9 421 -23 200 -25 210 -51 232 -29 25 -47 28 -76 12 -39 -20 -40 -50 -14
-275 14 -117 25 -241 25 -275 0 -58 -2 -64 -39 -100 l-39 -39 -143 0 c-170 0
-196 10 -224 83 -16 42 -15 53 9 264 34 286 33 306 0 332 -29 23 -38 24 -72
11z"/>
<path d="M632 1800 c-12 -5 -27 -21 -32 -35 -13 -34 -13 -476 0 -510 11 -28
53 -49 81 -40 48 16 49 21 49 293 0 141 -4 262 -8 268 -8 13 -47 34 -59 33 -4
0 -18 -4 -31 -9z"/>
<path d="M1489 1786 c-31 -12 -72 -33 -92 -45 -55 -34 -137 -130 -169 -197
-48 -104 -58 -174 -58 -439 0 -270 6 -299 71 -347 50 -37 92 -48 190 -48 l89
0 0 -229 0 -230 26 -20 c35 -27 59 -26 89 4 l25 24 0 735 c0 549 -3 742 -12
761 -13 28 -55 55 -85 55 -10 0 -43 -11 -74 -24z m31 -536 l0 -390 -89 0
c-131 0 -124 -17 -119 279 4 226 6 251 26 302 13 31 36 75 52 98 28 39 103
101 122 101 4 0 8 -175 8 -390z"/>
</g>
</svg>
